<svg width="314" height="336" viewBox="0 0 314 336" fill="none" xmlns="http://www.w3.org/2000/svg">
<g opacity="0.15">
<path d="M150.644 132.13L149.529 132.62L150.019 133.734L159.552 155.433C164.384 166.43 159.715 179.209 149.201 184.537L131.114 143.37C136.705 140.559 139.608 136.269 141.7 130.74C143.908 125.072 143.373 119.012 141.05 113.118L162.525 103.683C164.513 109.015 164.374 114.75 162.49 119.745C160.481 125.06 156.366 129.616 150.644 132.13Z" stroke="white" stroke-width="3"/>
<path d="M145.362 271.447L144.248 271.937L144.737 273.052L154.271 294.75C159.103 305.748 154.433 318.526 143.919 323.855L125.832 282.687C131.424 279.876 134.326 275.587 136.418 270.058C138.627 264.389 138.092 258.329 135.768 252.435L157.244 243C159.232 248.332 159.092 254.067 157.208 259.062C155.199 264.377 151.084 268.933 145.362 271.447Z" fill="white" stroke="#101F38" stroke-width="3"/>
<path d="M66.5282 86.1435L66.5694 86.0736L66.6106 86.0037L78.8077 65.3053L90.2218 45.9355L109.522 57.3084L129.87 69.2995L149.1 80.6312C142.525 90.5109 129.354 93.6776 119.074 87.6203L98.6557 75.5881L97.6068 74.97L96.9887 76.0189L84.3384 97.4865L66.0175 86.6904L66.5282 86.1435Z" stroke="white" stroke-width="3"/>
<path d="M134.581 28.7194L149.618 13.6826L166.319 30.3838C162.014 34.1143 156.333 35.6638 150.536 35.2621C144.739 34.8604 138.885 32.5647 134.581 28.7194Z" stroke="white" stroke-width="3"/>
</g>
</svg>
