<svg width="201" height="201" viewBox="0 0 201 201" fill="none" xmlns="http://www.w3.org/2000/svg">
<g opacity="0.15">
<path d="M93.3963 136.357L92.2817 136.846L92.7714 137.961L102.305 159.659C107.136 170.657 102.467 183.435 91.9533 188.764L73.8664 147.597C79.4576 144.785 82.3603 140.496 84.4524 134.967C86.6604 129.298 86.1259 123.239 83.8023 117.345L105.278 107.909C107.266 113.242 107.126 118.977 105.242 123.971C103.233 129.286 99.1181 133.843 93.3963 136.357Z" stroke="white" stroke-width="3"/>
<path d="M100.411 69.602L100.469 69.5446L100.526 69.4872L117.514 52.4991L133.412 36.6014L149.252 52.4417L165.953 69.1428L181.736 84.9257C172.898 92.8458 159.353 92.6162 150.917 84.1796L134.158 67.421L133.297 66.5602L132.436 67.421L114.817 85.0405L99.7801 70.0037L100.411 69.602Z" fill="white" stroke="white" stroke-width="3"/>
<path d="M77.0306 19.7799L92.0674 4.74316L108.769 21.4443C104.464 25.1748 98.7823 26.7244 92.9857 26.3226C87.189 25.9209 81.335 23.6252 77.0306 19.7799Z" stroke="white" stroke-width="3"/>
</g>
</svg>
