<svg width="206" height="209" viewBox="0 0 206 209" fill="none" xmlns="http://www.w3.org/2000/svg">
<g opacity="0.15">
<path d="M131.142 97.2941L130.167 97.7225L130.596 98.6974L138.934 117.676C143.16 127.295 139.076 138.472 129.88 143.133L114.06 107.125C118.951 104.667 121.489 100.915 123.319 96.0786C125.251 91.1204 124.783 85.8204 122.751 80.665L141.534 72.4124C143.273 77.0763 143.151 82.0927 141.503 86.4611C139.746 91.1101 136.147 95.0953 131.142 97.2941Z" stroke="white" stroke-width="3"/>
<path d="M38.2499 161.534L38.3001 161.484L38.3503 161.434L53.2092 146.575L67.1143 132.67L80.9693 146.525L95.5772 161.133L109.382 174.938C101.651 181.865 89.8043 181.664 82.425 174.285L67.7669 159.627L67.0139 158.874L66.1605 159.527L50.7494 174.938L37.6977 161.886L38.2499 161.534Z" stroke="white" stroke-width="3"/>
<path d="M108.036 16.1521L121.188 3L135.796 17.6079C132.031 20.8709 127.061 22.2262 121.991 21.8748C116.921 21.5234 111.801 19.5155 108.036 16.1521Z" fill="white" stroke="white" stroke-width="3"/>
</g>
</svg>
