<svg width="163" height="209" viewBox="0 0 163 209" fill="none" xmlns="http://www.w3.org/2000/svg">
<g opacity="0.15">
<path d="M63.5151 124.815L64.2005 123.948L63.3333 123.262L46.4512 109.919C37.8945 103.156 36.1994 90.9206 42.3627 82.1718L74.3925 107.487C71.1053 112.121 70.6034 116.797 71.2794 122.122C71.9218 127.608 74.93 132.24 79.3025 135.978L66.0966 152.686C62.2323 149.256 59.903 144.597 59.2876 139.79C58.6359 134.672 59.9966 129.267 63.5151 124.815Z" fill="white" stroke="white" stroke-width="3"/>
<path d="M117.421 20.7038L117.399 20.7743L117.377 20.8447L110.985 41.7003L105.004 61.2172L85.5572 55.2571L65.0539 48.973L45.6779 43.0344C49.3944 32.9203 60.3544 27.3385 70.7117 30.5129L91.2855 36.8186L92.3423 37.1426L92.8072 36.1289L99.4368 14.4982L117.756 20.1129L117.421 20.7038Z" stroke="white" stroke-width="3"/>
<path d="M124.192 187.966L118.534 206.427L98.0311 200.142C99.895 195.318 103.792 191.657 108.612 189.511C113.431 187.366 119.103 186.715 124.192 187.966Z" stroke="white" stroke-width="3"/>
</g>
</svg>
