<svg width="112" height="201" viewBox="0 0 112 201" fill="none" xmlns="http://www.w3.org/2000/svg">
<g opacity="0.15">
<path d="M59.1357 194.473L59.0834 194.411L59.0312 194.349L43.5716 175.959L29.1044 158.749L46.2519 144.334L64.3313 129.136L81.4166 114.773C88.5449 124.262 87.148 137.736 78.0151 145.414L59.8736 160.664L58.9416 161.448L59.725 162.38L75.7591 181.453L59.4815 195.137L59.1357 194.473Z" stroke="white" stroke-width="3"/>
<path d="M27.6318 111.189L18.4562 92.0057L39.7633 81.8144C41.8487 87.115 41.4191 92.9886 39.1112 98.3211C36.8034 103.654 32.6904 108.41 27.6318 111.189Z" fill="white" stroke="white" stroke-width="3"/>
</g>
<path opacity="0.15" d="M24.8718 27.7958L24.9627 29.0099L26.1768 28.919L49.8108 27.1502C61.7897 26.2536 72.286 34.9095 73.8119 46.5971L28.9719 49.9531C28.1817 43.7451 25.1027 39.5804 20.585 35.7675C15.9742 31.7988 10.0821 30.2864 3.75076 30.5161L2.00008 7.12488C7.69 7.02459 13.0518 9.06505 17.1346 12.5035C21.4783 16.1666 24.4054 21.5636 24.8718 27.7958Z" stroke="white" stroke-width="3"/>
</svg>
