<svg width="171" height="209" viewBox="0 0 171 209" fill="none" xmlns="http://www.w3.org/2000/svg">
<g opacity="0.15">
<path d="M63.5146 124.815L64.2001 123.947L63.3328 123.262L46.4507 109.919C37.894 103.156 36.199 90.9203 42.3622 82.1715L74.392 107.487C71.1048 112.121 70.603 116.797 71.2789 122.122C71.9213 127.608 74.9295 132.24 79.302 135.977L66.0961 152.686C62.2318 149.256 59.9025 144.597 59.2871 139.79C58.6354 134.672 59.9961 129.266 63.5146 124.815Z" fill="white" stroke="white" stroke-width="3"/>
<path d="M117.42 20.7036L117.399 20.774L117.377 20.8445L110.985 41.7001L105.003 61.217L85.5567 55.2568L65.0534 48.9727L45.6774 43.0342C49.3939 32.92 60.3539 27.3383 70.7112 30.5127L91.285 36.8184L92.3419 37.1423L92.8067 36.1286L99.4363 14.498L117.755 20.1126L117.42 20.7036Z" stroke="white" stroke-width="3"/>
<path d="M124.192 187.966L118.534 206.426L98.0306 200.142C99.8945 195.318 103.792 191.657 108.611 189.511C113.431 187.366 119.103 186.715 124.192 187.966Z" stroke="white" stroke-width="3"/>
</g>
</svg>
