<svg width="24" height="96" viewBox="0 0 24 96" fill="none" xmlns="http://www.w3.org/2000/svg">
<path d="M2.00201 48.002C2.00318 52.9214 5.58042 57.1101 10.439 57.881L10.439 50.892L7.90201 50.892L7.90201 48.002L10.442 48.002L10.442 45.802C10.3285 44.7596 10.6845 43.7206 11.4137 42.967C12.1428 42.2133 13.1694 41.8231 14.215 41.902C14.9656 41.9142 15.7142 41.981 16.455 42.102L16.455 44.561L15.191 44.561C14.7559 44.504 14.3184 44.6478 14.0018 44.9517C13.6852 45.2557 13.5238 45.6869 13.563 46.124L13.563 48.002L16.334 48.002L15.891 50.893L13.563 50.893L13.563 57.881C18.8175 57.0506 22.5021 52.2518 21.9475 46.9611C21.3929 41.6704 16.7933 37.74 11.4808 38.0172C6.16838 38.2945 2.00286 42.6824 2.00201 48.002Z" fill="#75E2F8"/>
<path d="M12.002 21.041C9.54201 21.041 9.25201 21.028 8.29201 20.986C7.54339 20.9614 6.80445 20.8092 6.10701 20.536C4.90033 20.0664 3.94615 19.1119 3.47701 17.905C3.21432 17.205 3.07263 16.4655 3.05801 15.718C3.00201 14.76 3.00201 14.446 3.00201 12.005C3.00201 9.538 3.01501 9.25 3.05801 8.295C3.07295 7.54853 3.21464 6.81001 3.47701 6.111C3.94565 4.90253 4.90137 3.94718 6.11001 3.479C6.80866 3.21521 7.54736 3.07315 8.29401 3.059C9.24901 3.005 9.56301 3.005 12.002 3.005C14.482 3.005 14.767 3.018 15.712 3.059C16.4606 3.07327 17.2013 3.21531 17.902 3.479C19.1103 3.94771 20.0659 4.90288 20.535 6.111C20.8021 6.8202 20.9446 7.57026 20.956 8.328C21.012 9.286 21.012 9.599 21.012 12.039C21.012 14.479 20.998 14.799 20.956 15.746C20.9411 16.4942 20.7991 17.2344 20.536 17.935C20.0657 19.1427 19.1101 20.0976 17.902 20.567C17.2023 20.8292 16.4631 20.9709 15.716 20.986C14.761 21.041 14.448 21.041 12.002 21.041ZM11.968 4.588C9.52201 4.588 9.26801 4.6 8.31301 4.643C7.743 4.65056 7.17849 4.75575 6.64401 4.954C5.85477 5.25601 5.23024 5.878 4.92501 6.666C4.72523 7.2063 4.62002 7.77698 4.61401 8.353C4.56101 9.322 4.56101 9.576 4.56101 12.005C4.56101 14.405 4.57001 14.696 4.61401 15.659C4.62297 16.2292 4.72811 16.7938 4.92501 17.329C5.23069 18.1165 5.85511 18.738 6.64401 19.04C7.17813 19.2396 7.74286 19.3448 8.31301 19.351C9.28101 19.407 9.53601 19.407 11.968 19.407C14.421 19.407 14.675 19.395 15.622 19.351C16.1924 19.3441 16.7574 19.2389 17.292 19.04C18.0765 18.7354 18.6969 18.1153 19.002 17.331C19.2014 16.7903 19.3066 16.2193 19.313 15.643L19.324 15.643C19.367 14.687 19.367 14.432 19.367 11.989C19.367 9.546 19.356 9.289 19.313 8.334C19.304 7.76446 19.1989 7.20052 19.002 6.666C18.6976 5.88058 18.0771 5.2593 17.292 4.954C16.7575 4.75475 16.1925 4.64953 15.622 4.643C14.655 4.588 14.402 4.588 11.968 4.588ZM12.002 16.624C10.132 16.6252 8.44543 15.4997 7.72888 13.7725C7.01232 12.0452 7.40692 10.0563 8.72865 8.73347C10.0504 7.4106 12.0389 7.01428 13.7668 7.72934C15.4947 8.4444 16.6216 10.13 16.622 12C16.6193 14.5511 14.5531 16.619 12.002 16.624ZM12.002 8.998C10.3452 8.998 9.00201 10.3412 9.00201 11.998C9.00201 13.6549 10.3452 14.998 12.002 14.998C13.6589 14.998 15.002 13.6549 15.002 11.998C14.9982 10.3427 13.6573 9.00185 12.002 8.998ZM16.802 8.28501C16.2074 8.2828 15.7269 7.79959 15.728 7.20501C15.7291 6.61043 16.2114 6.12901 16.806 6.12901C17.4006 6.12901 17.8829 6.61042 17.884 7.205C17.8843 7.49187 17.7703 7.76703 17.5673 7.96968C17.3642 8.17234 17.0889 8.2858 16.802 8.28501Z" fill="#75E2F8"/>
<path d="M19.995 78.688C20.8914 78.1521 21.5622 77.3082 21.882 76.314C21.0396 76.8138 20.118 77.1659 19.157 77.355C17.8246 75.9455 15.7135 75.6025 14.0034 76.5176C12.2933 77.4328 11.4075 79.3795 11.841 81.27C8.39059 81.0968 5.17595 79.4669 2.99699 76.786C1.85982 78.7474 2.44094 81.2548 4.32498 82.516C3.64369 82.4941 2.97751 82.3096 2.38198 81.978C2.38198 81.996 2.38198 82.014 2.38198 82.032C2.38238 84.0751 3.82236 85.8351 5.82498 86.24C5.19305 86.4119 4.53019 86.4372 3.88699 86.314C4.45018 88.0613 6.06054 89.2583 7.89598 89.294C6.37582 90.4871 4.49846 91.1342 2.56598 91.131C2.22346 91.1315 1.8812 91.1118 1.54098 91.072C3.50337 92.333 5.78735 93.0023 8.11998 93C11.3652 93.0223 14.484 91.7429 16.7787 89.448C19.0734 87.1531 20.3525 84.0342 20.33 80.789C20.33 80.603 20.3257 80.418 20.317 80.234C21.1574 79.6266 21.8828 78.8741 22.459 78.012C21.676 78.3591 20.8455 78.5869 19.995 78.688Z" fill="#75E2F8"/>
</svg>
