<svg width="24" height="24" viewBox="0 0 24 24" fill="none" xmlns="http://www.w3.org/2000/svg">
<path d="M2.00201 12.002C2.00318 16.9214 5.58042 21.1101 10.439 21.881L10.439 14.892L7.90201 14.892L7.90201 12.002L10.442 12.002L10.442 9.80204C10.3285 8.75958 10.6845 7.72064 11.4137 6.96698C12.1428 6.21332 13.1694 5.82306 14.215 5.90204C14.9656 5.91417 15.7142 5.98101 16.455 6.10204L16.455 8.56104L15.191 8.56104C14.7559 8.50405 14.3184 8.64777 14.0018 8.95171C13.6852 9.25566 13.5238 9.68693 13.563 10.124L13.563 12.002L16.334 12.002L15.891 14.893L13.563 14.893L13.563 21.881C18.8175 21.0506 22.5021 16.2518 21.9475 10.9611C21.3929 5.67041 16.7933 1.73997 11.4808 2.01722C6.16838 2.29447 2.00286 6.68235 2.00201 12.002Z" fill="#75E2F8"/>
</svg>
