<svg width="20" height="83" viewBox="0 0 20 83" fill="none" xmlns="http://www.w3.org/2000/svg">
<line x1="10" y1="38" x2="10" y2="83" stroke="#75E2F8" stroke-width="2"/>
<path d="M9.85874 0C4.42252 0 0 4.29372 0 9.57117V17.193C0 22.4704 4.42252 26.7639 9.85874 26.7639C15.2946 26.7639 19.7175 22.4834 19.7175 17.2222V9.57117C19.7175 4.29372 15.2946 0 9.85874 0ZM17.8631 17.2222C17.8631 21.5062 14.2726 24.9915 9.85874 24.9915C5.44518 24.9915 1.85434 21.493 1.85434 17.1927V9.57117C1.85434 5.27092 5.44518 1.77243 9.85874 1.77243C14.2726 1.77243 17.8631 5.27092 17.8631 9.57117V17.2222Z" fill="#75E2F8"/>
<path d="M9.85873 7.32605C9.34665 7.32605 8.93158 7.72281 8.93158 8.2123V11.3141C8.93158 11.8036 9.34665 12.2003 9.85873 12.2003C10.3708 12.2003 10.7859 11.8036 10.7859 11.3141V8.2123C10.7859 7.72281 10.3708 7.32605 9.85873 7.32605Z" fill="#75E2F8"/>
</svg>
