<svg width="112" height="101" viewBox="0 0 112 101" fill="none" xmlns="http://www.w3.org/2000/svg">
<path d="M105.607 99L109.907 2.04433L2.03459 4.30662C2.16467 10.7407 2.64142 31.706 3.11947 52.5093C3.39947 64.6937 3.67947 76.8048 3.88946 85.8697C3.99446 90.4022 4.08196 94.1732 4.14321 96.811L4.19406 99H105.607Z" fill="#FF49C1" stroke="#FF49C1" stroke-width="4"/>
<path d="M21.8984 84.7734H19.0156L18.3535 87H17.252L20 78.4688H20.9199L23.6738 87H22.5723L21.8984 84.7734ZM19.2969 83.8477H21.623L20.457 79.9688L19.2969 83.8477ZM25.9062 83.6602V87H24.834V78.4688H27.5527C28.3457 78.4688 28.9688 78.707 29.4219 79.1836C29.875 79.6562 30.1016 80.2871 30.1016 81.0762C30.1016 81.8965 29.8848 82.5293 29.4512 82.9746C29.0215 83.416 28.4141 83.6445 27.6289 83.6602H25.9062ZM25.9062 82.7402H27.5527C28.0293 82.7402 28.3945 82.5977 28.6484 82.3125C28.9023 82.0273 29.0293 81.6191 29.0293 81.0879C29.0293 80.5762 28.8984 80.166 28.6367 79.8574C28.375 79.5488 28.0156 79.3945 27.5586 79.3945H25.9062V82.7402ZM35.5801 83.0566H32.5625V86.0801H36.0781V87H31.4902V78.4688H36.0195V79.3945H32.5625V82.1367H35.5801V83.0566ZM40.0332 83.5488H38.5332V87H37.4551V78.4688H39.8457C40.6816 78.4688 41.3145 78.6875 41.7441 79.125C42.1738 79.5586 42.3887 80.1953 42.3887 81.0352C42.3887 81.5625 42.2715 82.0234 42.0371 82.418C41.8066 82.8086 41.4785 83.1035 41.0527 83.3027L42.7051 86.9297V87H41.5508L40.0332 83.5488ZM38.5332 82.6289H39.834C40.2832 82.6289 40.6406 82.4844 40.9062 82.1953C41.1758 81.9062 41.3105 81.5195 41.3105 81.0352C41.3105 79.9414 40.8145 79.3945 39.8223 79.3945H38.5332V82.6289ZM48.3477 79.3945H46.1035V87H45.0312V79.3945H42.793V78.4688H48.3477V79.3945ZM53.6973 83.0566H50.6797V86.0801H54.1953V87H49.6074V78.4688H54.1367V79.3945H50.6797V82.1367H53.6973V83.0566ZM63.875 83.4844C63.875 84.6484 63.627 85.5449 63.1309 86.1738C62.6348 86.8027 61.9297 87.1172 61.0156 87.1172C60.1367 87.1172 59.4414 86.8125 58.9297 86.2031C58.4219 85.5898 58.1582 84.7246 58.1387 83.6074V82.002C58.1387 80.8613 58.3906 79.9688 58.8945 79.3242C59.3984 78.6758 60.1016 78.3516 61.0039 78.3516C61.9023 78.3516 62.6016 78.6621 63.1016 79.2832C63.6055 79.9004 63.8633 80.7832 63.875 81.9316V83.4844ZM62.8027 81.9902C62.8027 81.0879 62.6543 80.418 62.3574 79.9805C62.0645 79.5391 61.6133 79.3184 61.0039 79.3184C60.4141 79.3184 59.9668 79.541 59.6621 79.9863C59.3613 80.4316 59.209 81.0879 59.2051 81.9551V83.4844C59.2051 84.3555 59.3555 85.0195 59.6562 85.4766C59.9609 85.9336 60.4141 86.1621 61.0156 86.1621C61.6172 86.1621 62.0625 85.9512 62.3516 85.5293C62.6406 85.1074 62.791 84.4609 62.8027 83.5898V81.9902ZM69.3594 83.6602V87H68.2871V78.4688H71.0059C71.7988 78.4688 72.4219 78.707 72.875 79.1836C73.3281 79.6562 73.5547 80.2871 73.5547 81.0762C73.5547 81.8965 73.3379 82.5293 72.9043 82.9746C72.4746 83.416 71.8672 83.6445 71.082 83.6602H69.3594ZM69.3594 82.7402H71.0059C71.4824 82.7402 71.8477 82.5977 72.1016 82.3125C72.3555 82.0273 72.4824 81.6191 72.4824 81.0879C72.4824 80.5762 72.3516 80.166 72.0898 79.8574C71.8281 79.5488 71.4688 79.3945 71.0117 79.3945H69.3594V82.7402ZM76.0215 86.0801H79.3672V87H74.9434V78.4688H76.0215V86.0801ZM84.7461 84.7734H81.8633L81.2012 87H80.0996L82.8477 78.4688H83.7676L86.5215 87H85.4199L84.7461 84.7734ZM82.1445 83.8477H84.4707L83.3047 79.9688L82.1445 83.8477ZM89.3516 82.752L91.0977 78.4688H92.3105L89.8848 83.8184V87H88.8125V83.8184L86.3867 78.4688H87.6055L89.3516 82.752Z" fill="white"/>
<path d="M72 46L46 63V29L72 46Z" fill="white"/>
</svg>
